<svg height="593" width="436" xmlns="http://www.w3.org/2000/svg"><g fill="none" fill-rule="evenodd" stroke="#96a9c6"><path d="m341.639-24.675c-75.703-23.693-153.543-63.212-233.235 8.97-79.694 72.182-129.794 135.414-97.44 217.227 32.354 81.814 164.422 30.855 202.794 103.977 38.373 73.122-45.94 139.485-9.591 204.563 36.35 65.078 64.3 106.787 181.115 65.409 116.816-41.379 106.045-146.664 194.878-208.318s184.944-153.953 53.046-318.647-215.865-49.486-291.566-73.18z"/><path d="m351.105 13.249c-61.583-19.24-124.905-51.33-189.734 7.283-64.828 58.614-105.585 109.959-79.266 176.393 26.32 66.434 133.755 25.055 164.971 84.43 31.216 59.377-37.372 113.266-7.802 166.11 29.57 52.845 52.306 86.713 147.334 53.113s86.267-119.094 158.53-169.158c72.265-50.064 150.45-125.012 43.153-258.747s-175.603-40.184-237.186-59.424z"/><path d="m368.812 38.417c-49.962-15.697-101.334-41.882-153.929 5.943-52.594 47.825-85.66 89.72-64.307 143.926s108.513 20.443 133.838 68.89c25.325 48.448-30.32 92.418-6.33 135.536 23.99 43.117 42.436 70.752 119.531 43.336 77.095-27.415 69.987-97.173 128.614-138.022 58.627-40.85 122.058-102.003 35.009-211.122-87.049-109.12-142.465-32.788-192.426-48.487z"/><path d="m387.316 69.184c-40.295-12.596-81.728-33.603-124.147 4.768s-69.087 71.984-51.865 115.475c17.221 43.491 87.518 16.402 107.943 55.273 20.425 38.87-24.453 74.148-5.105 108.743s34.225 56.767 96.404 34.77c62.179-21.996 56.446-77.965 103.73-110.739s98.442-81.839 28.236-169.388c-70.207-87.55-114.901-26.307-155.196-38.902z"/><path d="m392.083 89.046c-32.91-10.295-66.749-27.467-101.393 3.897-34.643 31.365-56.424 58.84-42.358 94.389 14.065 35.549 71.477 13.407 88.158 45.179 16.682 31.772-19.971 60.609-4.17 88.886 15.803 28.277 27.953 46.4 78.735 28.42 50.782-17.979 46.1-63.727 84.718-90.516 38.617-26.79 80.398-66.895 23.06-138.457-57.339-71.562-93.841-21.503-126.75-31.798z"/><path d="m401.225 103.406c-26.718-8.36-54.191-22.305-82.318 3.165s-45.81 47.78-34.39 76.649c11.419 28.868 58.03 10.887 71.574 36.688 13.544 25.8-16.214 49.217-3.385 72.18 12.83 22.963 22.694 37.68 63.923 23.08s37.428-51.75 68.78-73.505c31.353-21.755 65.275-54.323 18.723-112.435-46.553-58.112-76.188-17.462-102.907-25.822z"/></g></svg>