<svg height="317" width="176" xmlns="http://www.w3.org/2000/svg"><g fill="none" fill-rule="evenodd" stroke="#9e96c6"><path d="m229.233-90.334c-50.722-15.88-102.876-42.369-156.271 6.012-53.395 48.382-86.964 90.763-65.286 145.6 21.678 54.836 110.165 20.68 135.875 69.691 25.71 49.01-30.78 93.492-6.426 137.111 24.354 43.62 43.081 71.576 121.35 43.841 78.268-27.734 71.051-98.303 130.57-139.628 59.52-41.324 123.916-103.188 35.542-213.576-88.373-110.388-144.632-33.17-195.354-49.05z"/><path d="m235.714-64.418c-41.272-12.887-83.71-34.382-127.158 4.879-43.448 39.259-70.763 73.653-53.124 118.153 17.64 44.5 89.642 16.782 110.563 56.554 20.92 39.772-25.047 75.868-5.23 111.265 19.818 35.397 35.056 58.083 98.743 35.577 63.687-22.507 57.815-79.773 106.246-113.308 48.431-33.534 100.83-83.736 28.92-173.316-71.909-89.58-117.687-26.916-158.96-39.804z"/><path d="m247.526-47.655c-33.452-10.515-67.85-28.052-103.065 3.98-35.216 32.032-57.355 60.091-43.058 96.397 14.297 36.305 72.657 13.692 89.614 46.14 16.956 32.449-20.301 61.898-4.239 90.777 16.063 28.88 28.414 47.388 80.034 29.026s46.86-65.084 86.115-92.443c39.255-27.36 81.726-68.318 23.441-141.403-58.285-73.084-95.39-21.96-128.842-32.474z"/><path d="m259.692-27.494c-27.045-8.434-54.853-22.5-83.323 3.192s-46.368 48.198-34.81 77.318c11.56 29.12 58.741 10.984 72.449 37.009 13.708 26.026-16.412 49.647-3.427 72.81 12.986 23.164 22.971 38.01 64.703 23.282s37.884-52.203 69.62-74.147c31.734-21.945 66.07-54.797 18.95-113.417s-77.117-17.614-104.161-26.047z"/><path d="m262.21-13.586c-22.048-6.9-44.719-18.409-67.929 2.612-23.21 21.02-37.802 39.435-28.379 63.26 9.423 23.826 47.887 8.986 59.063 30.28s-13.38 40.62-2.793 59.572 18.727 31.099 52.75 19.048c34.022-12.05 30.885-42.71 56.757-60.665 25.873-17.955 53.865-44.834 15.45-92.796s-62.87-14.411-84.919-21.311z"/></g></svg>