<svg height="18" width="112" xmlns="http://www.w3.org/2000/svg"><path d="m0 .224h3.578v17.53h-3.578v-17.531zm8.086 0h3.555l10.923 5.72v-5.72h3.556v17.53h-3.556v-8.043l-10.923-5.685v13.727h-3.555zm23.81 12.314c.635.36 1.28.683 1.934.97.654.288 1.333.531 2.035.73.703.198 1.442.349 2.215.454.774.104 1.599.157 2.473.157 1.054 0 1.952-.07 2.692-.208s1.344-.329 1.811-.572.808-.533 1.02-.869c.214-.336.32-.703.32-1.1 0-.635-.265-1.137-.796-1.507-.53-.37-1.35-.556-2.456-.556-.486 0-.998.032-1.537.096l-.811.1-.82.107a97.03 97.03 0 0 1 -1.626.208c-.535.063-1.038.095-1.509.095-.785 0-1.538-.1-2.26-.303a5.98 5.98 0 0 1 -1.917-.908 4.5 4.5 0 0 1 -1.33-1.514c-.328-.606-.493-1.312-.493-2.12 0-.478.066-.953.196-1.424.131-.471.34-.922.628-1.352s.66-.83 1.116-1.2a6.682 6.682 0 0 1 1.655-.958c.646-.27 1.394-.48 2.243-.634.848-.153 1.814-.23 2.899-.23.785 0 1.573.043 2.366.129.792.086 1.564.207 2.316.364.751.157 1.475.346 2.17.567.695.22 1.342.465 1.94.734l-1.559 2.871a16.689 16.689 0 0 0 -1.592-.6 18.789 18.789 0 0 0 -1.783-.476 20.428 20.428 0 0 0 -1.924-.32 17.169 17.169 0 0 0 -2.024-.118c-.98 0-1.785.071-2.417.213-.632.143-1.135.324-1.508.544-.374.221-.634.468-.78.74a1.714 1.714 0 0 0 -.219.814c0 .523.236.951.707 1.284s1.189.499 2.153.499c.39 0 .836-.028 1.34-.084l.777-.089.816-.096a72.218 72.218 0 0 1 1.705-.185c.58-.056 1.142-.084 1.688-.084 1.031 0 1.945.115 2.742.347.796.232 1.463.563 2.001.993.539.43.946.95 1.223 1.559s.415 1.291.415 2.046c0 1.01-.234 1.909-.701 2.698-.467.788-1.133 1.454-1.996 1.996-.864.542-1.905.953-3.124 1.233-1.218.28-2.575.421-4.07.421-.988 0-1.952-.062-2.894-.185a21.57 21.57 0 0 1 -2.709-.527 20.3 20.3 0 0 1 -2.467-.819 17.998 17.998 0 0 1 -2.17-1.048l1.895-2.883zm21.486-12.314h3.555v9.656c0 .793.109 1.498.326 2.114.216.617.54 1.139.97 1.565s.962.75 1.598.97c.635.22 1.375.33 2.22.33.838 0 1.576-.11 2.215-.33.64-.22 1.174-.544 1.604-.97s.753-.948.97-1.565c.217-.616.325-1.321.325-2.114v-9.656h3.555v10.083c0 1.15-.194 2.198-.583 3.14a6.668 6.668 0 0 1 -1.693 2.422c-.74.673-1.647 1.193-2.72 1.559s-2.297.55-3.673.55c-1.375 0-2.6-.184-3.673-.55-1.072-.366-1.979-.886-2.72-1.559a6.668 6.668 0 0 1 -1.693-2.422c-.388-.942-.583-1.99-.583-3.14zm21.667 0h8.916c1.346 0 2.513.14 3.5.42.986.281 1.805.687 2.455 1.218a4.907 4.907 0 0 1 1.453 1.94c.318.762.476 1.626.476 2.59 0 .651-.078 1.27-.235 1.857a5.512 5.512 0 0 1 -.723 1.62 5.526 5.526 0 0 1 -1.228 1.318 6.677 6.677 0 0 1 -1.739.959l3.813 5.607h-4.351l-3.297-4.98-5.484-.01v4.99h-3.555v-17.529zm9.006 9.466c.673 0 1.262-.079 1.766-.236.505-.157.928-.377 1.268-.661.34-.285.594-.63.762-1.038a3.54 3.54 0 0 0 .253-1.362c0-.98-.337-1.737-1.01-2.272-.673-.534-1.686-.801-3.039-.801h-5.45v6.37zm12-9.466h14.927v3.118h-11.371v3.5h10.071v2.926h-10.07v4.879h11.607v3.106h-15.163v-17.529z" fill="#2c2830"/></svg>